<svg xmlns="http://www.w3.org/2000/svg" id="Layer_1" data-name="Layer 1" width="1324.427" height="277.204">
    <g id="On_Light" data-name="On Light" transform="translate(223.517 155.397)"><g id="g4577" transform="translate(-138.567 -34.74)" fill="#fff">
        <path id="rect12" transform="matrix(.99416 .10788 -.10302 .99468 0 0)" class="cls-1" d="M-78.148-99.574H144.92v8.244H-78.148z"/>
        <path id="rect8" transform="matrix(.99833 -.05775 .06323 .998 0 0)" class="cls-1" d="M-75.434 131.016h258.76v8.253h-258.76z"/>
        <path id="rect10" transform="matrix(1 .00183 .00351 1 0 0)" class="cls-1" d="M-71.402-103.278h8.263v242.616h-8.263z"/>
        <path id="rect32" transform="rotate(32.287) skewX(.049)" class="cls-1" d="M13.598 16.429h8.279v136.964h-8.279z"/>
        <path id="rect34" transform="matrix(.98472 -.17414 .17961 .98374 0 0)" class="cls-1" d="M161.971-51.832h8.255v207.606h-8.255z"/><ellipse ry="17.367" rx="17.277" id="circle18" transform="rotate(-43.253) skewX(.109)" cy="47.431" cx="167.033" class="cls-1"/><ellipse ry="17.367" rx="17.277" id="circle26" transform="rotate(-43.253) skewX(.109)" cy="55.65" cx="-144.158" class="cls-1"/>
        <path id="rect30" transform="matrix(.86592 -.50019 .50367 .8639 0 0)" class="cls-1" d="M-10.474-123.344h8.241V23.388h-8.241z"/><ellipse ry="17.367" rx="17.277" id="circle24" transform="rotate(-43.253) skewX(.109)" cy="-121.602" cx="21.803" class="cls-1"/>
        <path id="rect28" transform="rotate(28.717) skewX(.088)" class="cls-1" d="M16.242 13.734h210.907v8.233H16.242z"/><ellipse ry="17.367" rx="17.277" id="circle20" transform="rotate(-43.253) skewX(.109)" cy="221.762" cx="53.924" class="cls-1"/><ellipse ry="17.367" rx="17.277" id="circle22" transform="rotate(-43.253) skewX(.109)" cy="21.341" cx="-11.516" class="cls-1"/></g><text style="line-height:25px;-inkscape-font-specification:'sans-serif, Normal';font-variant-ligatures:normal;font-variant-caps:normal;font-variant-numeric:normal;text-align:start" x="215.664" y="-21.793" id="text4581" font-weight="400" font-size="14.667" font-family="sans-serif" letter-spacing="0" word-spacing="0"/>
    </g>          
    <g aria-label="fazezero" style="line-height:399.98791504px;-inkscape-font-specification:'sans-serif, Normal';font-variant-ligatures:normal;font-variant-caps:normal;font-variant-numeric:normal;text-align:start" id="text4593" font-weight="400" font-size="234.66" font-family="sans-serif" letter-spacing="0" word-spacing="0" fill="#fff">
        <path id="path4510" d="M436.777 65.91h-1.146q-3.552-1.03-9.281-2.062-5.73-1.146-10.083-1.146-13.864 0-20.166 6.188-6.188 6.072-6.188 22.113v4.354h38.843v18.104H390.6v109.882H369.06V113.461h-14.552V95.357h14.552v-4.239q0-22.801 11.343-34.947 11.344-12.26 32.77-12.26 7.219 0 12.948.688 5.843.687 10.656 1.604z"/>
        <path id="path4512" d="M549.867 223.343H528.44v-13.635q-2.864 1.948-7.791 5.5-4.812 3.437-9.396 5.5-5.385 2.635-12.374 4.354-6.99 1.833-16.385 1.833-17.302 0-29.333-11.458-12.03-11.458-12.03-29.218 0-14.551 6.187-23.489 6.302-9.051 17.874-14.207 11.687-5.157 28.072-6.99 16.385-1.833 35.176-2.75v-3.323q0-7.333-2.635-12.145-2.52-4.812-7.333-7.562-4.583-2.636-11-3.552-6.416-.917-13.406-.917-8.478 0-18.905 2.292-10.427 2.177-21.541 6.416h-1.146V98.107q6.302-1.718 18.218-3.78 11.916-2.063 23.49-2.063 13.52 0 23.488 2.291 10.083 2.177 17.416 7.563 7.219 5.27 11 13.635 3.78 8.364 3.78 20.739zm-21.427-31.51V156.2q-9.853.573-23.26 1.72-13.29 1.145-21.082 3.322-9.281 2.635-15.01 8.25-5.729 5.5-5.729 15.239 0 11 6.646 16.614 6.645 5.5 20.28 5.5 11.344 0 20.74-4.354 9.395-4.469 17.415-10.656z"/>
        <path id="path4514" d="M684.384 223.343H581.033v-15.926l74.591-94.07h-72.987v-17.99h99.799v15.354L607.5 205.125h76.883z"/>
        <path id="path4516" d="M820.62 161.585h-94.3q0 11.801 3.552 20.624 3.552 8.708 9.74 14.323 5.957 5.5 14.092 8.25 8.25 2.75 18.104 2.75 13.062 0 26.239-5.157 13.291-5.27 18.906-10.312h1.145v23.489q-10.885 4.583-22.228 7.677-11.344 3.093-23.833 3.093-31.853 0-49.727-17.187-17.875-17.301-17.875-49.04 0-31.395 17.073-49.842 17.187-18.447 45.144-18.447 25.895 0 39.874 15.124 14.093 15.125 14.093 42.968zm-20.969-16.5q-.115-16.958-8.593-26.239-8.365-9.28-25.552-9.28-17.301 0-27.614 10.197-10.197 10.198-11.572 25.322z"/>
        <path id="path4518" d="M946.084 223.343h-103.35v-15.926l74.59-94.07h-72.987v-17.99h99.8v15.354L869.2 205.125h76.883z"/>
        <path id="path4520" d="M1082.32 161.585h-94.3q0 11.801 3.552 20.624 3.552 8.708 9.74 14.323 5.958 5.5 14.093 8.25 8.25 2.75 18.104 2.75 13.062 0 26.238-5.157 13.292-5.27 18.906-10.312h1.146v23.489q-10.885 4.583-22.229 7.677-11.343 3.093-23.832 3.093-31.853 0-49.728-17.187-17.874-17.301-17.874-49.04 0-31.395 17.072-49.842 17.187-18.447 45.145-18.447 25.895 0 39.873 15.124 14.094 15.125 14.094 42.968zm-20.968-16.5q-.115-16.958-8.594-26.239-8.364-9.28-25.551-9.28-17.302 0-27.614 10.197-10.198 10.198-11.573 25.322z"/>
        <path id="path4522" d="M1194.837 118.846h-1.146q-4.812-1.145-9.395-1.604-4.469-.573-10.656-.573-9.969 0-19.25 4.469-9.28 4.354-17.874 11.343v90.862h-21.541V95.357h21.54v18.906q12.834-10.312 22.573-14.551 9.854-4.355 20.052-4.355 5.614 0 8.135.344 2.52.23 7.562 1.031z"/>
        <path id="path4524" d="M1324.427 159.408q0 31.28-16.041 49.384-16.041 18.103-42.968 18.103-27.155 0-43.196-18.103-15.927-18.104-15.927-49.384t15.927-49.384q16.04-18.218 43.196-18.218 26.927 0 42.968 18.218 16.04 18.103 16.04 49.384zm-22.229 0q0-24.864-9.739-36.895-9.74-12.146-27.04-12.146-17.531 0-27.27 12.146-9.625 12.03-9.625 36.895 0 24.061 9.739 36.55 9.74 12.375 27.155 12.375 17.187 0 26.927-12.26 9.853-12.374 9.853-36.665z"/>
    </g>
</svg>