<svg xmlns="http://www.w3.org/2000/svg" id="Layer_1" data-name="Layer 1" width="293.823" height="277.204">
    <g id="On_Light" data-name="On Light" transform="translate(-231.98 257.257)"><text style="line-height:25px;-inkscape-font-specification:'sans-serif, Normal';font-variant-ligatures:normal;font-variant-caps:normal;font-variant-numeric:normal;text-align:start" x="215.664" y="-21.793" id="text4581" font-weight="400" font-size="14.667" font-family="sans-serif" letter-spacing="0" word-spacing="0"/>
        <g transform="translate(316.93 -136.6)" data-name="On Light" id="On_Light-1">        
            <path id="rect12" transform="matrix(.99416 .10788 -.10302 .99468 0 0)" class="cls-1" fill="#fff" d="M-78.148-99.574H144.92v8.244H-78.148z"/>
            <path id="rect8" transform="matrix(.99833 -.05775 .06323 .998 0 0)" class="cls-1" fill="#fff" d="M-75.434 131.016h258.76v8.253h-258.76z"/>
            <path id="rect10" transform="matrix(1 .00183 .00351 1 0 0)" class="cls-1" fill="#fff" d="M-71.402-103.278h8.263v242.616h-8.263z"/>
            <path id="rect32" transform="rotate(32.287) skewX(.049)" class="cls-1" fill="#fff" d="M13.598 16.429h8.279v136.964h-8.279z"/>
            <path id="rect34" transform="matrix(.98472 -.17414 .17961 .98374 0 0)" class="cls-1" fill="#fff" d="M161.971-51.832h8.255v207.606h-8.255z"/><ellipse ry="17.367" rx="17.277" id="circle18" transform="rotate(-43.253) skewX(.109)" cy="47.431" cx="167.033" class="cls-1" fill="#fff"/><ellipse ry="17.367" rx="17.277" id="circle26" transform="rotate(-43.253) skewX(.109)" cy="55.65" cx="-144.158" class="cls-1" fill="#fff"/>
            <path id="rect30" transform="matrix(.86592 -.50019 .50367 .8639 0 0)" class="cls-1" fill="#fff" d="M-10.474-123.344h8.241V23.388h-8.241z"/><ellipse ry="17.367" rx="17.277" id="circle24" transform="rotate(-43.253) skewX(.109)" cy="-121.602" cx="21.803" class="cls-1" fill="#fff"/>
            <path id="rect28" transform="rotate(28.717) skewX(.088)" class="cls-1" fill="#fff" d="M16.242 13.734h210.907v8.233H16.242z"/><ellipse ry="17.367" rx="17.277" id="circle20" transform="rotate(-43.253) skewX(.109)" cy="221.762" cx="53.924" class="cls-1" fill="#fff"/><ellipse ry="17.367" rx="17.277" id="circle22" transform="rotate(-43.253) skewX(.109)" cy="21.341" cx="-11.516" class="cls-1" fill="#fff"/>
        </g>
    </g>
</svg>